<?xml version="1.0" standalone="no"?>
<!DOCTYPE svg PUBLIC "-//W3C//DTD SVG 20010904//EN"
 "http://www.w3.org/TR/2001/REC-SVG-20010904/DTD/svg10.dtd">
<svg version="1.0" xmlns="http://www.w3.org/2000/svg"
 width="637.000000pt" height="637.000000pt" viewBox="0 0 637.000000 637.000000"
 preserveAspectRatio="xMidYMid meet">
<metadata>
Created by potrace 1.14, written by Peter Selinger 2001-2017
</metadata>
<g transform="translate(0.000000,637.000000) scale(0.100000,-0.100000)"
fill="#000000" stroke="none">
<path d="M0 3190 l0 -3050 3185 0 3185 0 0 3050 0 3050 -3185 0 -3185 0 0
-3050z m4836 -2227 c-2 -2 -160 53 -351 122 -191 69 -349 125 -351 125 -2 0
-4 504 -4 1120 0 616 -3 1120 -7 1120 -5 0 -242 -323 -529 -718 -286 -394
-524 -716 -530 -716 -5 1 -243 324 -528 717 -286 394 -523 714 -528 711 -4 -3
-8 -506 -8 -1119 l0 -1113 -42 -15 c-24 -8 -182 -65 -352 -126 -170 -61 -310
-110 -312 -108 -2 2 -3 1022 -2 2266 l3 2263 281 -354 c154 -194 552 -721 884
-1171 492 -669 605 -816 615 -805 7 7 286 382 620 833 334 450 727 975 873
1165 l267 346 3 -2270 c1 -1248 0 -2271 -2 -2273z"/>
</g>
</svg>
